<svg width="17" height="18" viewBox="0 0 17 18" fill="none" xmlns="http://www.w3.org/2000/svg">
<path d="M3 17.3307V13.7474C2.20833 13.0252 1.59375 12.1814 1.15625 11.2161C0.71875 10.2509 0.5 9.23351 0.5 8.16406C0.5 6.08073 1.22917 4.3099 2.6875 2.85156C4.14583 1.39323 5.91667 0.664062 8 0.664062C9.73611 0.664062 11.2743 1.17448 12.6146 2.19531C13.9549 3.21615 14.8264 4.54601 15.2292 6.1849L16.3125 10.4557C16.3819 10.7196 16.3333 10.9592 16.1667 11.1745C16 11.3898 15.7778 11.4974 15.5 11.4974H13.8333V13.9974C13.8333 14.4557 13.6701 14.8481 13.3437 15.1745C13.0174 15.5009 12.625 15.6641 12.1667 15.6641H10.5V17.3307H8.83333V13.9974H12.1667V9.83073H14.4167L13.625 6.60156C13.3056 5.33767 12.625 4.3099 11.5833 3.51823C10.5417 2.72656 9.34722 2.33073 8 2.33073C6.38889 2.33073 5.01389 2.89323 3.875 4.01823C2.73611 5.14323 2.16667 6.51128 2.16667 8.1224C2.16667 8.95573 2.33681 9.7474 2.67708 10.4974C3.01736 11.2474 3.5 11.9141 4.125 12.4974L4.66667 12.9974V17.3307H3ZM7.16667 11.4974H8.83333L8.95833 10.4557C9.06944 10.4141 9.17014 10.3655 9.26042 10.3099C9.35069 10.2543 9.43056 10.1918 9.5 10.1224L10.4583 10.5391L11.2917 9.1224L10.4583 8.4974C10.4861 8.38628 10.5 8.27517 10.5 8.16406C10.5 8.05295 10.4861 7.94184 10.4583 7.83073L11.2917 7.20573L10.4583 5.78906L9.5 6.20573C9.43056 6.13628 9.35069 6.07378 9.26042 6.01823C9.17014 5.96267 9.06944 5.91406 8.95833 5.8724L8.83333 4.83073H7.16667L7.04167 5.8724C6.93056 5.91406 6.82986 5.96267 6.73958 6.01823C6.64931 6.07378 6.56944 6.13628 6.5 6.20573L5.54167 5.78906L4.70833 7.20573L5.54167 7.83073C5.51389 7.94184 5.5 8.05295 5.5 8.16406C5.5 8.27517 5.51389 8.38628 5.54167 8.4974L4.70833 9.1224L5.54167 10.5391L6.5 10.1224C6.56944 10.1918 6.64931 10.2543 6.73958 10.3099C6.82986 10.3655 6.93056 10.4141 7.04167 10.4557L7.16667 11.4974ZM8 9.41406C7.65278 9.41406 7.35764 9.29253 7.11458 9.04948C6.87153 8.80642 6.75 8.51128 6.75 8.16406C6.75 7.81684 6.87153 7.5217 7.11458 7.27865C7.35764 7.03559 7.65278 6.91406 8 6.91406C8.34722 6.91406 8.64236 7.03559 8.88542 7.27865C9.12847 7.5217 9.25 7.81684 9.25 8.16406C9.25 8.51128 9.12847 8.80642 8.88542 9.04948C8.64236 9.29253 8.34722 9.41406 8 9.41406Z" fill="#48ABCA"/>
</svg>
