<svg width="28" height="28" viewBox="0 0 28 28" fill="none" xmlns="http://www.w3.org/2000/svg">
<g clip-path="url(#clip0_586_2686)">
<path fill-rule="evenodd" clip-rule="evenodd" d="M6.03399 13.9995C6.03399 13.0902 6.18493 12.2182 6.45465 11.4006L1.73621 7.79753C0.816584 9.66456 0.298584 11.7685 0.298584 13.9995C0.298584 16.2288 0.816146 18.3312 1.73424 20.1972L6.45005 16.5871C6.18296 15.7732 6.03399 14.9045 6.03399 13.9995Z" fill="#FBBC05"/>
<path fill-rule="evenodd" clip-rule="evenodd" d="M14.3186 5.72731C16.2941 5.72731 18.0785 6.42731 19.4805 7.57269L23.5588 3.5C21.0736 1.33634 17.8873 0 14.3186 0C8.77811 0 4.01636 3.16838 1.73633 7.798L6.45455 11.401C7.54173 8.10097 10.6408 5.72731 14.3186 5.72731Z" fill="#EA4335"/>
<path fill-rule="evenodd" clip-rule="evenodd" d="M14.3186 22.2714C10.641 22.2714 7.54195 19.8977 6.45477 16.5977L1.73633 20.2C4.01636 24.8303 8.77811 27.9987 14.3186 27.9987C17.7381 27.9987 21.003 26.7844 23.4532 24.5094L18.9745 21.047C17.7108 21.8431 16.1194 22.2714 14.3186 22.2714Z" fill="#34A853"/>
<path fill-rule="evenodd" clip-rule="evenodd" d="M27.7016 13.9978C27.7016 13.1705 27.574 12.2796 27.3828 11.4525H14.3191V16.8615H21.8388C21.4628 18.7058 20.4395 20.1235 18.975 21.0462L23.4537 24.5086C26.0275 22.1198 27.7016 18.5612 27.7016 13.9978Z" fill="#4285F4"/>
</g>
<defs>
<clipPath id="clip0_586_2686">
<rect width="28" height="28" fill="white"/>
</clipPath>
</defs>
</svg>
